# xmcd
#
# Track frame offsets:
#	150
#	9430
#	33015
#	55945
#	75572
#	93985
#	113255
#	131715
#	152060
#	172467
#	191145
#	213015
#	232877
#
# Disc length: 3404 seconds
#
# Revision: 0
# Processed by: cddbd v1.4PL0 Copyright (c) Steve Scherf et al.
# Submitted via: EasyCDDAExtractor 4.6.9.1
#
DISCID=9a0d4a0d
DTITLE=김민종 - 愛
DYEAR=1900
DGENRE=
TTITLE0=Prologue
TTITLE1=그래도 그대는 나의 영원한 사랑이야
TTITLE2=착한 사랑
TTITLE3=세상 끝에서의 시작
TTITLE4=잊을 수 없는 건...
TTITLE5=이제는....
TTITLE6=미안해요 사랑해서
TTITLE7='摸 수 있는 사랑
TTITLE8=힘겨운 사랑을 위해
TTITLE9=다시 시작된 사랑
TTITLE10=어느날...
TTITLE11=같은 하늘 아래
TTITLE12=착한 사랑 (Bonus Track)
EXTD=
EXTT0=
EXTT1=
EXTT2=
EXTT3=
EXTT4=
EXTT5=
EXTT6=
EXTT7=
EXTT8=
EXTT9=
EXTT10=
EXTT11=
EXTT12=
PLAYORDER=
